<mxfile host="65bd71144e">
    <diagram id="AF6h4KZf77uVoIZUKbMl" name="ページ1">
        <mxGraphModel dx="1233" dy="1588" grid="1" gridSize="10" guides="1" tooltips="1" connect="1" arrows="1" fold="1" page="1" pageScale="1" pageWidth="827" pageHeight="1169" math="0" shadow="0">
            <root>
                <mxCell id="0"/>
                <mxCell id="1" parent="0"/>
                <mxCell id="R0PC5x6vS80_OUpeGfGb-8" value="&lt;div&gt;&lt;font style=&quot;font-size: 6px;&quot;&gt;&lt;br&gt;&lt;/font&gt;&lt;/div&gt;&lt;div&gt;&lt;font style=&quot;font-size: 6px;&quot;&gt;&lt;br&gt;&lt;/font&gt;&lt;/div&gt;&lt;div&gt;&lt;font style=&quot;font-size: 6px;&quot;&gt;&lt;br&gt;&lt;/font&gt;&lt;/div&gt;&lt;div&gt;&lt;font style=&quot;font-size: 8px;&quot;&gt;&lt;br&gt;&lt;/font&gt;&lt;/div&gt;&lt;div&gt;&lt;font style=&quot;font-size: 8px;&quot;&gt;&lt;br&gt;&lt;/font&gt;&lt;/div&gt;&lt;font style=&quot;font-size: 12px;&quot;&gt;メニュー画面&lt;/font&gt;" style="shape=umlLifeline;perimeter=lifelinePerimeter;whiteSpace=wrap;html=1;container=1;dropTarget=0;collapsible=0;recursiveResize=0;outlineConnect=0;portConstraint=eastwest;newEdgeStyle={&quot;curved&quot;:0,&quot;rounded&quot;:0};participant=umlBoundary;fillColor=#D5E8D4;strokeColor=#97D077;" vertex="1" parent="1">
                    <mxGeometry x="110" y="10" width="50" height="300" as="geometry"/>
                </mxCell>
                <mxCell id="R0PC5x6vS80_OUpeGfGb-14" value="" style="html=1;points=[[0,0,0,0,5],[0,1,0,0,-5],[1,0,0,0,5],[1,1,0,0,-5]];perimeter=orthogonalPerimeter;outlineConnect=0;targetShapes=umlLifeline;portConstraint=eastwest;newEdgeStyle={&quot;curved&quot;:0,&quot;rounded&quot;:0};" vertex="1" parent="R0PC5x6vS80_OUpeGfGb-8">
                    <mxGeometry x="20" y="90" width="10" height="70" as="geometry"/>
                </mxCell>
                <mxCell id="R0PC5x6vS80_OUpeGfGb-5" value="" style="shape=umlLifeline;perimeter=lifelinePerimeter;whiteSpace=wrap;html=1;container=1;dropTarget=0;collapsible=0;recursiveResize=0;outlineConnect=0;portConstraint=eastwest;newEdgeStyle={&quot;curved&quot;:0,&quot;rounded&quot;:0};participant=umlActor;" vertex="1" parent="1">
                    <mxGeometry x="30" y="10" width="20" height="300" as="geometry"/>
                </mxCell>
                <mxCell id="R0PC5x6vS80_OUpeGfGb-6" value="" style="html=1;points=[[0,0,0,0,5],[0,1,0,0,-5],[1,0,0,0,5],[1,1,0,0,-5]];perimeter=orthogonalPerimeter;outlineConnect=0;targetShapes=umlLifeline;portConstraint=eastwest;newEdgeStyle={&quot;curved&quot;:0,&quot;rounded&quot;:0};" vertex="1" parent="R0PC5x6vS80_OUpeGfGb-5">
                    <mxGeometry x="5" y="80" width="10" height="90" as="geometry"/>
                </mxCell>
                <mxCell id="R0PC5x6vS80_OUpeGfGb-24" value="" style="html=1;points=[[0,0,0,0,5],[0,1,0,0,-5],[1,0,0,0,5],[1,1,0,0,-5]];perimeter=orthogonalPerimeter;outlineConnect=0;targetShapes=umlLifeline;portConstraint=eastwest;newEdgeStyle={&quot;curved&quot;:0,&quot;rounded&quot;:0};" vertex="1" parent="R0PC5x6vS80_OUpeGfGb-5">
                    <mxGeometry x="5" y="200" width="10" height="90" as="geometry"/>
                </mxCell>
                <mxCell id="R0PC5x6vS80_OUpeGfGb-7" value="&lt;div&gt;&lt;br&gt;&lt;/div&gt;&lt;div&gt;&lt;br&gt;&lt;/div&gt;&lt;div&gt;&lt;br&gt;&lt;/div&gt;&lt;div&gt;&lt;br&gt;&lt;/div&gt;&lt;div&gt;&lt;br&gt;&lt;/div&gt;&lt;div&gt;学生登録画面&lt;/div&gt;" style="shape=umlLifeline;perimeter=lifelinePerimeter;whiteSpace=wrap;html=1;container=1;dropTarget=0;collapsible=0;recursiveResize=0;outlineConnect=0;portConstraint=eastwest;newEdgeStyle={&quot;curved&quot;:0,&quot;rounded&quot;:0};participant=umlBoundary;fillColor=#D5E8D4;strokeColor=#97D077;" vertex="1" parent="1">
                    <mxGeometry x="200" y="10" width="50" height="300" as="geometry"/>
                </mxCell>
                <mxCell id="R0PC5x6vS80_OUpeGfGb-22" value="" style="html=1;points=[[0,0,0,0,5],[0,1,0,0,-5],[1,0,0,0,5],[1,1,0,0,-5]];perimeter=orthogonalPerimeter;outlineConnect=0;targetShapes=umlLifeline;portConstraint=eastwest;newEdgeStyle={&quot;curved&quot;:0,&quot;rounded&quot;:0};" vertex="1" parent="R0PC5x6vS80_OUpeGfGb-7">
                    <mxGeometry x="20" y="100" width="10" height="50" as="geometry"/>
                </mxCell>
                <mxCell id="R0PC5x6vS80_OUpeGfGb-25" value="" style="html=1;points=[[0,0,0,0,5],[0,1,0,0,-5],[1,0,0,0,5],[1,1,0,0,-5]];perimeter=orthogonalPerimeter;outlineConnect=0;targetShapes=umlLifeline;portConstraint=eastwest;newEdgeStyle={&quot;curved&quot;:0,&quot;rounded&quot;:0};" vertex="1" parent="R0PC5x6vS80_OUpeGfGb-7">
                    <mxGeometry x="20" y="210" width="10" height="70" as="geometry"/>
                </mxCell>
                <mxCell id="R0PC5x6vS80_OUpeGfGb-9" value="&lt;div&gt;&lt;br&gt;&lt;/div&gt;&lt;div&gt;&lt;br&gt;&lt;/div&gt;&lt;div&gt;&lt;br&gt;&lt;/div&gt;&lt;div&gt;　&lt;/div&gt;&lt;div&gt;&lt;br&gt;&lt;/div&gt;&lt;div&gt;学生情報登録&lt;/div&gt;" style="shape=umlLifeline;perimeter=lifelinePerimeter;whiteSpace=wrap;html=1;container=1;dropTarget=0;collapsible=0;recursiveResize=0;outlineConnect=0;portConstraint=eastwest;newEdgeStyle={&quot;curved&quot;:0,&quot;rounded&quot;:0};participant=umlControl;fillColor=#F8CECC;strokeColor=#EA6B66;" vertex="1" parent="1">
                    <mxGeometry x="300" y="10" width="40" height="300" as="geometry"/>
                </mxCell>
                <mxCell id="R0PC5x6vS80_OUpeGfGb-27" value="" style="html=1;points=[[0,0,0,0,5],[0,1,0,0,-5],[1,0,0,0,5],[1,1,0,0,-5]];perimeter=orthogonalPerimeter;outlineConnect=0;targetShapes=umlLifeline;portConstraint=eastwest;newEdgeStyle={&quot;curved&quot;:0,&quot;rounded&quot;:0};" vertex="1" parent="R0PC5x6vS80_OUpeGfGb-9">
                    <mxGeometry x="15" y="220" width="10" height="50" as="geometry"/>
                </mxCell>
                <mxCell id="R0PC5x6vS80_OUpeGfGb-10" value="&lt;div&gt;&lt;br&gt;&lt;/div&gt;&lt;div&gt;&lt;br&gt;&lt;/div&gt;&lt;div&gt;&lt;br&gt;&lt;/div&gt;&lt;div&gt;&lt;br&gt;&lt;/div&gt;&lt;div&gt;&lt;br&gt;&lt;/div&gt;&lt;div&gt;&lt;br&gt;&lt;/div&gt;学生オブジェクト" style="shape=umlLifeline;perimeter=lifelinePerimeter;whiteSpace=wrap;html=1;container=1;dropTarget=0;collapsible=0;recursiveResize=0;outlineConnect=0;portConstraint=eastwest;newEdgeStyle={&quot;curved&quot;:0,&quot;rounded&quot;:0};participant=umlEntity;fillColor=#D4E1F5;strokeColor=#7EA6E0;" vertex="1" parent="1">
                    <mxGeometry x="394" y="10" width="40" height="310" as="geometry"/>
                </mxCell>
                <mxCell id="R0PC5x6vS80_OUpeGfGb-29" value="" style="html=1;points=[[0,0,0,0,5],[0,1,0,0,-5],[1,0,0,0,5],[1,1,0,0,-5]];perimeter=orthogonalPerimeter;outlineConnect=0;targetShapes=umlLifeline;portConstraint=eastwest;newEdgeStyle={&quot;curved&quot;:0,&quot;rounded&quot;:0};direction=west;" vertex="1" parent="R0PC5x6vS80_OUpeGfGb-10">
                    <mxGeometry x="15" y="230" width="10" height="30" as="geometry"/>
                </mxCell>
                <mxCell id="R0PC5x6vS80_OUpeGfGb-12" value="&lt;b&gt;&lt;font style=&quot;font-size: 8px;&quot;&gt;活性区間&lt;/font&gt;&lt;/b&gt;&lt;div&gt;&lt;b&gt;&lt;font style=&quot;font-size: 8px;&quot;&gt;Activation Bar&lt;/font&gt;&lt;/b&gt;&lt;/div&gt;" style="text;html=1;align=center;verticalAlign=middle;whiteSpace=wrap;rounded=0;" vertex="1" parent="1">
                    <mxGeometry x="-5" y="430" width="90" height="30" as="geometry"/>
                </mxCell>
                <mxCell id="R0PC5x6vS80_OUpeGfGb-13" value="&lt;font style=&quot;font-size: 8px;&quot;&gt;&lt;b&gt;生存線&lt;/b&gt;&lt;/font&gt;&lt;div&gt;&lt;font style=&quot;font-size: 8px;&quot;&gt;&lt;b&gt;Life Line&lt;/b&gt;&lt;/font&gt;&lt;/div&gt;" style="text;html=1;align=center;verticalAlign=middle;whiteSpace=wrap;rounded=0;" vertex="1" parent="1">
                    <mxGeometry x="105" y="430" width="60" height="30" as="geometry"/>
                </mxCell>
                <mxCell id="R0PC5x6vS80_OUpeGfGb-15" value="&lt;font style=&quot;font-size: 8px;&quot;&gt;学生登録を選択()&lt;/font&gt;" style="html=1;verticalAlign=bottom;endArrow=block;curved=0;rounded=0;" edge="1" parent="1" source="R0PC5x6vS80_OUpeGfGb-6">
                    <mxGeometry width="80" relative="1" as="geometry">
                        <mxPoint x="50" y="100" as="sourcePoint"/>
                        <mxPoint x="130" y="100" as="targetPoint"/>
                    </mxGeometry>
                </mxCell>
                <mxCell id="R0PC5x6vS80_OUpeGfGb-11" value="" style="html=1;points=[[0,0,0,0,5],[0,1,0,0,-5],[1,0,0,0,5],[1,1,0,0,-5]];perimeter=orthogonalPerimeter;outlineConnect=0;targetShapes=umlLifeline;portConstraint=eastwest;newEdgeStyle={&quot;curved&quot;:0,&quot;rounded&quot;:0};" vertex="1" parent="1">
                    <mxGeometry x="35" y="340" width="10" height="80" as="geometry"/>
                </mxCell>
                <mxCell id="R0PC5x6vS80_OUpeGfGb-17" value="" style="endArrow=none;dashed=1;html=1;rounded=0;" edge="1" parent="1">
                    <mxGeometry width="50" height="50" relative="1" as="geometry">
                        <mxPoint x="135" y="420" as="sourcePoint"/>
                        <mxPoint x="135" y="340" as="targetPoint"/>
                    </mxGeometry>
                </mxCell>
                <mxCell id="R0PC5x6vS80_OUpeGfGb-18" value="" style="endArrow=classic;html=1;rounded=0;" edge="1" parent="1">
                    <mxGeometry width="50" height="50" relative="1" as="geometry">
                        <mxPoint x="224.5" y="340" as="sourcePoint"/>
                        <mxPoint x="224.5" y="420" as="targetPoint"/>
                    </mxGeometry>
                </mxCell>
                <mxCell id="R0PC5x6vS80_OUpeGfGb-19" value="&lt;b&gt;&lt;font style=&quot;font-size: 8px;&quot;&gt;操作()&lt;/font&gt;&lt;/b&gt;&lt;div&gt;&lt;b&gt;&lt;font style=&quot;font-size: 8px;&quot;&gt;Method&lt;/font&gt;&lt;/b&gt;&lt;/div&gt;" style="text;html=1;align=center;verticalAlign=middle;whiteSpace=wrap;rounded=0;" vertex="1" parent="1">
                    <mxGeometry x="195" y="430" width="60" height="30" as="geometry"/>
                </mxCell>
                <mxCell id="R0PC5x6vS80_OUpeGfGb-20" value="" style="endArrow=classic;html=1;rounded=0;" edge="1" parent="1">
                    <mxGeometry width="50" height="50" relative="1" as="geometry">
                        <mxPoint y="90" as="sourcePoint"/>
                        <mxPoint y="260.666748046875" as="targetPoint"/>
                    </mxGeometry>
                </mxCell>
                <mxCell id="R0PC5x6vS80_OUpeGfGb-21" value="時間の流れ" style="text;html=1;align=center;verticalAlign=middle;whiteSpace=wrap;rounded=0;" vertex="1" parent="1">
                    <mxGeometry x="-30" y="270" width="60" height="30" as="geometry"/>
                </mxCell>
                <mxCell id="R0PC5x6vS80_OUpeGfGb-23" value="&lt;font style=&quot;font-size: 8px;&quot;&gt;表示()&lt;/font&gt;" style="html=1;verticalAlign=bottom;endArrow=block;curved=0;rounded=0;" edge="1" parent="1">
                    <mxGeometry width="80" relative="1" as="geometry">
                        <mxPoint x="140" y="110" as="sourcePoint"/>
                        <mxPoint x="220" y="110" as="targetPoint"/>
                    </mxGeometry>
                </mxCell>
                <mxCell id="R0PC5x6vS80_OUpeGfGb-26" value="&lt;font style=&quot;font-size: 8px;&quot;&gt;学生データの入力()&lt;/font&gt;" style="html=1;verticalAlign=bottom;endArrow=block;curved=0;rounded=0;" edge="1" parent="1" target="R0PC5x6vS80_OUpeGfGb-7">
                    <mxGeometry width="80" relative="1" as="geometry">
                        <mxPoint x="45" y="220" as="sourcePoint"/>
                        <mxPoint x="125" y="220" as="targetPoint"/>
                    </mxGeometry>
                </mxCell>
                <mxCell id="R0PC5x6vS80_OUpeGfGb-28" value="&lt;font style=&quot;font-size: 8px;&quot;&gt;起動()&lt;/font&gt;" style="html=1;verticalAlign=bottom;endArrow=block;curved=0;rounded=0;" edge="1" parent="1" target="R0PC5x6vS80_OUpeGfGb-27">
                    <mxGeometry width="80" relative="1" as="geometry">
                        <mxPoint x="230" y="230" as="sourcePoint"/>
                        <mxPoint x="310" y="230" as="targetPoint"/>
                    </mxGeometry>
                </mxCell>
                <mxCell id="R0PC5x6vS80_OUpeGfGb-30" value="&lt;font style=&quot;font-size: 8px;&quot;&gt;学生データの登録()&lt;/font&gt;" style="html=1;verticalAlign=bottom;endArrow=block;curved=0;rounded=0;" edge="1" parent="1" source="R0PC5x6vS80_OUpeGfGb-27">
                    <mxGeometry width="80" relative="1" as="geometry">
                        <mxPoint x="330" y="240" as="sourcePoint"/>
                        <mxPoint x="410" y="240" as="targetPoint"/>
                    </mxGeometry>
                </mxCell>
                <mxCell id="R0PC5x6vS80_OUpeGfGb-31" value="&lt;font style=&quot;font-size: 8px;&quot;&gt;&lt;b&gt;メッセージ&lt;/b&gt;&lt;/font&gt;&lt;div&gt;&lt;font style=&quot;font-size: 8px;&quot;&gt;&lt;b&gt;Message&lt;/b&gt;&lt;/font&gt;&lt;/div&gt;" style="text;html=1;align=center;verticalAlign=middle;whiteSpace=wrap;rounded=0;" vertex="1" parent="1">
                    <mxGeometry x="270" y="430" width="100" height="30" as="geometry"/>
                </mxCell>
            </root>
        </mxGraphModel>
    </diagram>
</mxfile>